<?xml version="1.0" standalone="no"?>
<!DOCTYPE svg PUBLIC "-//W3C//DTD SVG 20010904//EN"
 "http://www.w3.org/TR/2001/REC-SVG-20010904/DTD/svg10.dtd">
<svg version="1.0" xmlns="http://www.w3.org/2000/svg"
 width="95.000000pt" height="202.000000pt" viewBox="0 0 95.000000 202.000000"
 preserveAspectRatio="xMidYMid meet">

<g transform="translate(0.000000,202.000000) scale(0.100000,-0.100000)"
fill="#000000" stroke="none">
<path d="M317 1823 c-5 -40 -6 -99 -2 -132 4 -35 3 -67 -4 -78 -5 -11 -14 -62
-20 -114 -5 -54 -18 -113 -30 -139 -11 -25 -21 -53 -21 -62 0 -30 30 -20 52
17 23 40 41 41 46 2 2 -17 8 -24 17 -21 7 3 16 0 20 -6 4 -6 10 -100 14 -208
7 -173 11 -204 30 -247 52 -115 77 -380 51 -526 -5 -30 -12 -76 -16 -104 -5
-36 -8 -45 -14 -31 -6 19 -7 19 -12 -2 -7 -25 12 -55 28 -44 13 8 18 47 34
237 13 168 13 184 4 283 -4 54 -3 82 3 82 17 0 23 -37 34 -219 7 -125 7 -195
-1 -247 -6 -41 -8 -78 -5 -84 10 -16 25 -1 25 25 0 17 4 22 18 18 19 -5 16
-23 56 289 9 65 14 124 12 130 -10 31 -16 98 -9 98 14 0 44 -86 53 -152 9 -59
0 -219 -16 -307 -5 -26 -4 -33 7 -29 18 6 27 193 23 508 -3 201 -17 448 -23
385 -1 -11 -5 -27 -11 -35 -8 -12 -11 -12 -27 1 -19 17 -55 18 -87 4 -15 -6
-25 -2 -42 18 -29 34 -43 105 -50 242 -3 60 -9 144 -15 185 -9 71 -8 78 16
124 14 27 25 57 24 65 0 9 -8 -4 -17 -29 -22 -56 -37 -54 -36 5 0 43 39 145
56 145 4 0 8 6 8 13 0 6 -12 0 -25 -15 -24 -28 -48 -95 -61 -173 l-7 -40 -8
40 c-4 22 -8 60 -8 83 -1 69 -25 47 -31 -29 l-6 -64 -7 45 c-4 25 -8 72 -10
105 l-2 60 -8 -72z m53 -263 c0 -5 -2 -10 -4 -10 -3 0 -8 5 -11 10 -3 6 -1 10
4 10 6 0 11 -4 11 -10z m-8 -39 c8 11 9 11 6 1 -4 -16 -22 -18 -25 -2 -1 7 0
6 4 -1 4 -8 8 -7 15 2z m239 -842 c16 -39 15 -164 -1 -244 -7 -33 -15 -78 -19
-100 -4 -22 -12 -49 -19 -60 -9 -16 -12 15 -12 150 0 94 -2 192 -4 219 -5 57
-2 66 23 66 11 0 24 -12 32 -31z"/>
<path d="M481 1784 c0 -11 3 -14 6 -6 3 7 2 16 -1 19 -3 4 -6 -2 -5 -13z"/>
<path d="M656 195 c-10 -28 -7 -45 9 -45 12 0 14 7 9 28 -9 35 -10 36 -18 17z"/>
<path d="M541 101 c-1 -24 -1 -24 -17 -5 -8 10 -13 13 -9 6 4 -7 2 -19 -4 -26
-9 -10 -7 -15 5 -20 24 -9 36 7 31 40 -3 25 -4 26 -6 5z"/>
</g>
</svg>
